<?xml version="1.0" standalone="no"?>
<!DOCTYPE svg PUBLIC "-//W3C//DTD SVG 20010904//EN"
 "http://www.w3.org/TR/2001/REC-SVG-20010904/DTD/svg10.dtd">
<svg version="1.0" xmlns="http://www.w3.org/2000/svg"
 width="700.000000pt" height="700.000000pt" viewBox="0 0 700.000000 700.000000"
 preserveAspectRatio="xMidYMid meet">
<metadata>
Created by potrace 1.14, written by Peter Selinger 2001-2017
</metadata>
<g transform="translate(0.000000,700.000000) scale(0.100000,-0.100000)"
fill="#000000" stroke="none">
<path d="M4315 6636 c-441 -84 -870 -319 -1210 -661 -521 -525 -809 -1226
-876 -2134 -13 -183 -7 -616 11 -745 6 -43 9 -80 7 -83 -8 -7 -214 -44 -357
-64 -80 -11 -240 -24 -357 -28 -197 -8 -216 -11 -268 -35 -106 -48 -171 -124
-200 -231 -43 -158 36 -330 184 -402 l56 -28 215 1 c269 1 599 39 851 98 l57
13 46 -106 c205 -472 573 -907 1036 -1223 505 -345 1156 -585 1762 -649 105
-11 124 -10 182 5 247 67 342 365 180 559 -69 83 -150 115 -339 137 -211 24
-493 95 -725 182 -566 212 -1006 542 -1292 969 -73 109 -182 319 -171 329 5 4
67 31 138 60 658 271 1277 680 1789 1180 264 259 433 459 598 710 295 447 397
889 250 1081 -123 162 -353 191 -505 63 -77 -65 -127 -174 -127 -278 -1 -227
-271 -649 -667 -1043 -445 -442 -992 -808 -1591 -1063 -29 -13 -56 -19 -60
-16 -13 13 -8 604 6 716 80 654 278 1127 627 1498 238 253 580 449 869 498
160 27 259 91 313 203 25 49 28 67 28 151 0 84 -3 102 -28 151 -54 111 -173
189 -296 195 -36 2 -97 -3 -136 -10z"/>
</g>
</svg>
