<?xml version="1.0" standalone="no"?>
<!DOCTYPE svg PUBLIC "-//W3C//DTD SVG 20010904//EN"
 "http://www.w3.org/TR/2001/REC-SVG-20010904/DTD/svg10.dtd">
<svg version="1.0" xmlns="http://www.w3.org/2000/svg"
 width="700.000000pt" height="700.000000pt" viewBox="0 0 700.000000 700.000000"
 preserveAspectRatio="xMidYMid meet">
<metadata>
Created by potrace 1.14, written by Peter Selinger 2001-2017
</metadata>
<g transform="translate(0.000000,700.000000) scale(0.100000,-0.100000)"
fill="#000000" stroke="none">
<path d="M4035 6745 c-201 -40 -376 -100 -567 -196 -99 -49 -322 -180 -338
-198 -3 -3 -43 -35 -90 -71 -178 -135 -374 -335 -511 -520 -69 -93 -159 -227
-159 -236 0 -3 -9 -18 -19 -33 -37 -52 -151 -283 -201 -408 -69 -172 -137
-382 -156 -476 -2 -10 -6 -27 -9 -37 -3 -10 -7 -27 -9 -37 -35 -172 -56 -287
-60 -323 -4 -25 -8 -58 -10 -75 -26 -186 -34 -341 -35 -620 -1 -203 1 -268 14
-367 2 -21 1 -39 -3 -42 -6 -3 -145 -28 -232 -41 -93 -14 -242 -25 -409 -30
-213 -7 -302 -37 -404 -140 -80 -81 -125 -181 -134 -294 -14 -196 92 -372 277
-460 l75 -36 175 0 c278 0 475 19 790 76 80 14 106 16 109 6 14 -40 147 -288
200 -372 395 -626 1037 -1107 1843 -1381 112 -38 285 -89 336 -99 9 -1 37 -8
62 -15 51 -14 68 -17 124 -26 22 -3 43 -7 46 -9 5 -3 30 -7 145 -25 257 -38
340 -34 464 27 108 52 213 189 240 313 15 70 6 197 -18 262 -42 110 -138 214
-241 260 -46 21 -103 36 -165 43 -132 15 -140 16 -215 29 -192 33 -611 155
-644 187 -6 5 -16 9 -24 9 -35 0 -419 199 -468 242 -11 10 -24 18 -28 18 -5 0
-40 23 -80 52 -282 204 -498 441 -642 703 -41 74 -40 78 35 105 173 62 567
269 836 438 930 586 1681 1434 1855 2097 79 302 51 503 -94 649 -117 120 -298
167 -456 119 -30 -9 -57 -17 -60 -17 -15 -3 -110 -68 -138 -95 -39 -38 -92
-120 -115 -178 -9 -23 -21 -86 -26 -140 -10 -110 -38 -195 -103 -313 -113
-207 -291 -433 -523 -665 -82 -81 -146 -141 -246 -230 -160 -143 -460 -359
-687 -496 -153 -92 -447 -246 -511 -267 l-33 -12 6 213 c3 116 8 230 11 252 2
22 7 60 9 85 13 118 20 162 46 289 54 262 107 423 205 626 186 384 456 669
804 846 90 47 242 102 310 114 17 3 46 7 64 10 190 32 330 146 387 316 84 248
-58 522 -306 595 -84 24 -172 24 -299 -1z"/>
</g>
</svg>
